<?xml version="1.0" encoding="UTF-8" standalone="no"?>
<!DOCTYPE svg PUBLIC "-//W3C//DTD SVG 1.1//EN" "http://www.w3.org/Graphics/SVG/1.1/DTD/svg11.dtd">
<svg xmlns="http://www.w3.org/2000/svg" xmlns:xlink="http://www.w3.org/1999/xlink" version="1.1" width="567pt" height="396pt" viewBox="0 0 567 396">
<g enable-background="new">
<path transform="matrix(1,0,0,-1,0,396)" d="M 0 0 L 566.929 0 L 566.929 395.796 L 0 395.796 Z " fill="#ffffff" fill-rule="evenodd"/>
<path transform="matrix(1,0,0,-1,0,396)" stroke-width=".4" stroke-linecap="butt" stroke-miterlimit="10" stroke-linejoin="miter" fill="none" stroke="#ffffff" d="M 0 0 L 566.929 0 L 566.929 395.796 L 0 395.796 Z "/>
<path transform="matrix(1,0,0,-1,0,396)" d="M 56.6929 39.5796 L 510.2359 39.5796 L 510.2359 356.21659 L 56.6929 356.21659 Z " fill="#ffffff" fill-rule="evenodd"/>
<path transform="matrix(1,0,0,-1,0,396)" stroke-width=".4" stroke-linecap="butt" stroke-miterlimit="10" stroke-linejoin="miter" fill="none" stroke="#ffffff" d="M 56.6929 39.5796 L 510.2359 39.5796 L 510.2359 356.21659 L 56.6929 356.21659 Z "/>
<path transform="matrix(1,0,0,-1,0,396)" stroke-width=".75" stroke-linecap="butt" stroke-miterlimit="10" stroke-linejoin="miter" fill="none" stroke="#000000" d="M 56.6929 39.5796 L 510.2359 39.5796 L 510.2359 356.21659 L 56.6929 356.21659 Z "/>
<path transform="matrix(1,0,0,-1,0,396)" stroke-width=".75" stroke-linecap="butt" stroke-miterlimit="10" stroke-linejoin="miter" fill="none" stroke="#000000" d="M 56.6929 39.5796 L 510.236 39.5796 "/>
<path transform="matrix(1,0,0,-1,0,396)" stroke-width=".75" stroke-linecap="butt" stroke-dasharray="1,2" stroke-miterlimit="10" stroke-linejoin="miter" fill="none" stroke="#000000" d="M 129.107 356.216 L 129.107 39.5796 "/>
<path transform="matrix(1,0,0,-1,0,396)" stroke-width=".75" stroke-linecap="butt" stroke-dasharray="1,2" stroke-miterlimit="10" stroke-linejoin="miter" fill="none" stroke="#000000" d="M 205.333 356.216 L 205.333 39.5796 "/>
<path transform="matrix(1,0,0,-1,0,396)" stroke-width=".75" stroke-linecap="butt" stroke-dasharray="1,2" stroke-miterlimit="10" stroke-linejoin="miter" fill="none" stroke="#000000" d="M 281.559 356.216 L 281.559 39.5796 "/>
<path transform="matrix(1,0,0,-1,0,396)" stroke-width=".75" stroke-linecap="butt" stroke-dasharray="1,2" stroke-miterlimit="10" stroke-linejoin="miter" fill="none" stroke="#000000" d="M 357.785 356.216 L 357.785 39.5796 "/>
<path transform="matrix(1,0,0,-1,0,396)" stroke-width=".75" stroke-linecap="butt" stroke-dasharray="1,2" stroke-miterlimit="10" stroke-linejoin="miter" fill="none" stroke="#000000" d="M 434.01 356.216 L 434.01 39.5796 "/>
<path transform="matrix(1,0,0,-1,0,396)" stroke-width=".75" stroke-linecap="butt" stroke-dasharray="1,2" stroke-miterlimit="10" stroke-linejoin="miter" fill="none" stroke="#000000" d="M 510.236 356.216 L 510.236 39.5796 "/>
<path transform="matrix(1,0,0,-1,0,396)" stroke-width=".75" stroke-linecap="butt" stroke-dasharray="1,2" stroke-miterlimit="10" stroke-linejoin="miter" fill="none" stroke="#000000" d="M 129.107 356.216 L 129.107 39.5796 "/>
<path transform="matrix(1,0,0,-1,0,396)" stroke-width=".75" stroke-linecap="butt" stroke-miterlimit="10" stroke-linejoin="miter" fill="none" stroke="#000000" d="M 56.6929 39.5796 L 56.6929 356.216 "/>
<path transform="matrix(1,0,0,-1,0,396)" stroke-width=".75" stroke-linecap="butt" stroke-dasharray="1,2" stroke-miterlimit="10" stroke-linejoin="miter" fill="none" stroke="#000000" d="M 510.236 39.5796 L 56.6929 39.5796 "/>
<path transform="matrix(1,0,0,-1,0,396)" stroke-width=".75" stroke-linecap="butt" stroke-dasharray="1,2" stroke-miterlimit="10" stroke-linejoin="miter" fill="none" stroke="#000000" d="M 510.236 77.2745 L 56.6929 77.2745 "/>
<path transform="matrix(1,0,0,-1,0,396)" stroke-width=".75" stroke-linecap="butt" stroke-dasharray="1,2" stroke-miterlimit="10" stroke-linejoin="miter" fill="none" stroke="#000000" d="M 510.236 114.969 L 56.6929 114.969 "/>
<path transform="matrix(1,0,0,-1,0,396)" stroke-width=".75" stroke-linecap="butt" stroke-dasharray="1,2" stroke-miterlimit="10" stroke-linejoin="miter" fill="none" stroke="#000000" d="M 510.236 152.664 L 56.6929 152.664 "/>
<path transform="matrix(1,0,0,-1,0,396)" stroke-width=".75" stroke-linecap="butt" stroke-dasharray="1,2" stroke-miterlimit="10" stroke-linejoin="miter" fill="none" stroke="#000000" d="M 510.236 190.359 L 56.6929 190.359 "/>
<path transform="matrix(1,0,0,-1,0,396)" stroke-width=".75" stroke-linecap="butt" stroke-dasharray="1,2" stroke-miterlimit="10" stroke-linejoin="miter" fill="none" stroke="#000000" d="M 510.236 228.054 L 56.6929 228.054 "/>
<path transform="matrix(1,0,0,-1,0,396)" stroke-width=".75" stroke-linecap="butt" stroke-dasharray="1,2" stroke-miterlimit="10" stroke-linejoin="miter" fill="none" stroke="#000000" d="M 510.236 265.749 L 56.6929 265.749 "/>
<path transform="matrix(1,0,0,-1,0,396)" stroke-width=".75" stroke-linecap="butt" stroke-dasharray="1,2" stroke-miterlimit="10" stroke-linejoin="miter" fill="none" stroke="#000000" d="M 510.236 303.444 L 56.6929 303.444 "/>
<path transform="matrix(1,0,0,-1,0,396)" stroke-width=".75" stroke-linecap="butt" stroke-dasharray="1,2" stroke-miterlimit="10" stroke-linejoin="miter" fill="none" stroke="#000000" d="M 510.236 341.138 L 56.6929 341.138 "/>
<path transform="matrix(1,0,0,-1,0,396)" stroke-width=".75" stroke-linecap="butt" stroke-dasharray="1,2" stroke-miterlimit="10" stroke-linejoin="miter" fill="none" stroke="#000000" d="M 510.236 341.138 L 56.6929 341.138 "/>
<path transform="matrix(1,0,0,-1,0,396)" d="M 56.6929 39.5796 L 56.6929 39.5796 L 60.4724 39.5796 L 64.252 39.5796 L 68.0315 39.5796 L 71.811 39.5796 L 75.5906 39.5796 L 79.3701 39.5796 L 83.1496 39.5796 L 86.9291 39.5796 L 90.7087 39.5796 L 94.4882 39.5796 L 98.2677 39.5796 L 102.047 39.5796 L 105.827 39.5796 L 109.606 39.5796 L 113.386 39.5796 L 117.165 39.5796 L 120.945 39.5796 L 124.724 39.5796 L 128.504 39.5796 L 132.283 39.5796 L 136.063 39.5796 L 139.843 39.5796 L 143.622 39.5796 L 147.402 39.5796 L 151.181 39.5796 L 154.961 39.5796 L 158.74 39.5796 L 162.52 39.5796 L 166.299 39.5796 L 170.079 39.5796 L 173.858 39.5796 L 177.638 39.5796 L 181.417 39.5796 L 185.197 39.5796 L 188.976 39.5796 L 192.756 39.5796 L 196.535 39.5796 L 200.315 39.5796 L 204.094 39.5796 L 207.874 39.5796 L 211.654 39.5796 L 215.433 39.5796 L 219.213 39.5796 L 222.992 39.5796 L 226.772 39.5796 L 230.551 39.5796 L 234.331 39.5796 L 238.11 39.5796 L 241.89 39.5796 L 245.669 39.5796 L 249.449 39.5796 L 253.228 39.5796 L 257.008 39.5796 L 260.787 39.5796 L 264.567 39.5796 L 268.346 39.5796 L 272.126 39.5796 L 275.906 39.5796 L 279.685 39.5796 L 283.465 39.5796 L 287.244 39.5796 L 291.024 39.5796 L 294.803 39.5796 L 298.583 39.5796 L 298.583 114.969 L 302.362 114.969 L 306.142 114.969 L 306.142 39.5796 L 309.921 39.5796 L 313.701 39.5796 L 317.48 39.5796 L 321.26 39.5796 L 325.039 39.5796 L 328.819 39.5796 L 332.598 39.5796 L 336.378 39.5796 L 340.157 39.5796 L 343.937 39.5796 L 343.937 114.969 L 347.717 114.969 L 347.717 39.5796 L 351.496 39.5796 L 355.276 39.5796 L 355.276 114.969 L 359.055 114.969 L 359.055 39.5796 L 362.835 39.5796 L 362.835 265.749 L 366.614 265.749 L 366.614 114.969 L 370.394 114.969 L 370.394 39.5796 L 374.173 39.5796 L 374.173 114.969 L 377.953 114.969 L 381.732 114.969 L 381.732 39.5796 L 385.512 39.5796 L 385.512 114.969 L 389.291 114.969 L 393.071 114.969 L 393.071 190.359 L 396.85 190.359 L 396.85 341.138 L 400.63 341.138 L 400.63 190.359 L 404.409 190.359 L 404.409 341.138 L 408.189 341.138 L 408.189 114.969 L 411.969 114.969 L 411.969 265.749 L 415.748 265.749 L 419.528 265.749 L 423.307 265.749 L 423.307 114.969 L 427.087 114.969 L 427.087 265.749 L 430.866 265.749 L 430.866 341.138 L 434.646 341.138 L 434.646 265.749 L 438.425 265.749 L 438.425 114.969 L 442.205 114.969 L 442.205 39.5796 L 445.984 39.5796 L 445.984 114.969 L 449.764 114.969 L 449.764 39.5796 L 453.543 39.5796 L 457.323 39.5796 L 457.323 190.359 L 461.102 190.359 L 461.102 39.5796 L 464.882 39.5796 L 468.661 39.5796 L 472.441 39.5796 L 476.22 39.5796 L 476.22 114.969 L 480 114.969 L 480 39.5796 L 483.78 39.5796 L 487.559 39.5796 L 491.339 39.5796 L 495.118 39.5796 L 498.898 39.5796 L 502.677 39.5796 L 506.457 39.5796 L 510.236 39.5796 " fill="#0066cc" fill-rule="evenodd"/>
<path transform="matrix(1,0,0,-1,0,396)" stroke-width=".75" stroke-linecap="butt" stroke-miterlimit="10" stroke-linejoin="miter" fill="none" stroke="#000099" d="M 56.6929 39.5796 L 60.4724 39.5796 L 64.252 39.5796 L 68.0315 39.5796 L 71.811 39.5796 L 75.5906 39.5796 L 79.3701 39.5796 L 83.1496 39.5796 L 86.9291 39.5796 L 90.7087 39.5796 L 94.4882 39.5796 L 98.2677 39.5796 L 102.047 39.5796 L 105.827 39.5796 L 109.606 39.5796 L 113.386 39.5796 L 117.165 39.5796 L 120.945 39.5796 L 124.724 39.5796 L 128.504 39.5796 L 132.283 39.5796 L 136.063 39.5796 L 139.843 39.5796 L 143.622 39.5796 L 147.402 39.5796 L 151.181 39.5796 L 154.961 39.5796 L 158.74 39.5796 L 162.52 39.5796 L 166.299 39.5796 L 170.079 39.5796 L 173.858 39.5796 L 177.638 39.5796 L 181.417 39.5796 L 185.197 39.5796 L 188.976 39.5796 L 192.756 39.5796 L 196.535 39.5796 L 200.315 39.5796 L 204.094 39.5796 L 207.874 39.5796 L 211.654 39.5796 L 215.433 39.5796 L 219.213 39.5796 L 222.992 39.5796 L 226.772 39.5796 L 230.551 39.5796 L 234.331 39.5796 L 238.11 39.5796 L 241.89 39.5796 L 245.669 39.5796 L 249.449 39.5796 L 253.228 39.5796 L 257.008 39.5796 L 260.787 39.5796 L 264.567 39.5796 L 268.346 39.5796 L 272.126 39.5796 L 275.906 39.5796 L 279.685 39.5796 L 283.465 39.5796 L 287.244 39.5796 L 291.024 39.5796 L 294.803 39.5796 L 298.583 39.5796 L 298.583 114.969 L 302.362 114.969 L 306.142 114.969 L 306.142 39.5796 L 309.921 39.5796 L 313.701 39.5796 L 317.48 39.5796 L 321.26 39.5796 L 325.039 39.5796 L 328.819 39.5796 L 332.598 39.5796 L 336.378 39.5796 L 340.157 39.5796 L 343.937 39.5796 L 343.937 114.969 L 347.717 114.969 L 347.717 39.5796 L 351.496 39.5796 L 355.276 39.5796 L 355.276 114.969 L 359.055 114.969 L 359.055 39.5796 L 362.835 39.5796 L 362.835 265.749 L 366.614 265.749 L 366.614 114.969 L 370.394 114.969 L 370.394 39.5796 L 374.173 39.5796 L 374.173 114.969 L 377.953 114.969 L 381.732 114.969 L 381.732 39.5796 L 385.512 39.5796 L 385.512 114.969 L 389.291 114.969 L 393.071 114.969 L 393.071 190.359 L 396.85 190.359 L 396.85 341.138 L 400.63 341.138 L 400.63 190.359 L 404.409 190.359 L 404.409 341.138 L 408.189 341.138 L 408.189 114.969 L 411.969 114.969 L 411.969 265.749 L 415.748 265.749 L 419.528 265.749 L 423.307 265.749 L 423.307 114.969 L 427.087 114.969 L 427.087 265.749 L 430.866 265.749 L 430.866 341.138 L 434.646 341.138 L 434.646 265.749 L 438.425 265.749 L 438.425 114.969 L 442.205 114.969 L 442.205 39.5796 L 445.984 39.5796 L 445.984 114.969 L 449.764 114.969 L 449.764 39.5796 L 453.543 39.5796 L 457.323 39.5796 L 457.323 190.359 L 461.102 190.359 L 461.102 39.5796 L 464.882 39.5796 L 468.661 39.5796 L 472.441 39.5796 L 476.22 39.5796 L 476.22 114.969 L 480 114.969 L 480 39.5796 L 483.78 39.5796 L 487.559 39.5796 L 491.339 39.5796 L 495.118 39.5796 L 498.898 39.5796 L 502.677 39.5796 L 506.457 39.5796 L 510.236 39.5796 "/>
<path transform="matrix(1,0,0,-1,0,396)" stroke-width=".75" stroke-linecap="butt" stroke-miterlimit="10" stroke-linejoin="miter" fill="none" stroke="#000000" d="M 56.6929 39.5796 L 510.236 39.5796 "/>
<path transform="matrix(1,0,0,-1,0,396)" stroke-width=".75" stroke-linecap="butt" stroke-miterlimit="10" stroke-linejoin="miter" fill="none" stroke="#000000" d="M 129.107 49.0787 L 129.107 39.5796 "/>
<path transform="matrix(1,0,0,-1,0,396)" stroke-width=".75" stroke-linecap="butt" stroke-miterlimit="10" stroke-linejoin="miter" fill="none" stroke="#000000" d="M 148.164 44.3292 L 148.164 39.5796 "/>
<path transform="matrix(1,0,0,-1,0,396)" stroke-width=".75" stroke-linecap="butt" stroke-miterlimit="10" stroke-linejoin="miter" fill="none" stroke="#000000" d="M 167.22 44.3292 L 167.22 39.5796 "/>
<path transform="matrix(1,0,0,-1,0,396)" stroke-width=".75" stroke-linecap="butt" stroke-miterlimit="10" stroke-linejoin="miter" fill="none" stroke="#000000" d="M 186.277 44.3292 L 186.277 39.5796 "/>
<path transform="matrix(1,0,0,-1,0,396)" stroke-width=".75" stroke-linecap="butt" stroke-miterlimit="10" stroke-linejoin="miter" fill="none" stroke="#000000" d="M 205.333 49.0787 L 205.333 39.5796 "/>
<path transform="matrix(1,0,0,-1,0,396)" stroke-width=".75" stroke-linecap="butt" stroke-miterlimit="10" stroke-linejoin="miter" fill="none" stroke="#000000" d="M 224.39 44.3292 L 224.39 39.5796 "/>
<path transform="matrix(1,0,0,-1,0,396)" stroke-width=".75" stroke-linecap="butt" stroke-miterlimit="10" stroke-linejoin="miter" fill="none" stroke="#000000" d="M 243.446 44.3292 L 243.446 39.5796 "/>
<path transform="matrix(1,0,0,-1,0,396)" stroke-width=".75" stroke-linecap="butt" stroke-miterlimit="10" stroke-linejoin="miter" fill="none" stroke="#000000" d="M 262.502 44.3292 L 262.502 39.5796 "/>
<path transform="matrix(1,0,0,-1,0,396)" stroke-width=".75" stroke-linecap="butt" stroke-miterlimit="10" stroke-linejoin="miter" fill="none" stroke="#000000" d="M 281.559 49.0787 L 281.559 39.5796 "/>
<path transform="matrix(1,0,0,-1,0,396)" stroke-width=".75" stroke-linecap="butt" stroke-miterlimit="10" stroke-linejoin="miter" fill="none" stroke="#000000" d="M 300.615 44.3292 L 300.615 39.5796 "/>
<path transform="matrix(1,0,0,-1,0,396)" stroke-width=".75" stroke-linecap="butt" stroke-miterlimit="10" stroke-linejoin="miter" fill="none" stroke="#000000" d="M 319.672 44.3292 L 319.672 39.5796 "/>
<path transform="matrix(1,0,0,-1,0,396)" stroke-width=".75" stroke-linecap="butt" stroke-miterlimit="10" stroke-linejoin="miter" fill="none" stroke="#000000" d="M 338.728 44.3292 L 338.728 39.5796 "/>
<path transform="matrix(1,0,0,-1,0,396)" stroke-width=".75" stroke-linecap="butt" stroke-miterlimit="10" stroke-linejoin="miter" fill="none" stroke="#000000" d="M 357.785 49.0787 L 357.785 39.5796 "/>
<path transform="matrix(1,0,0,-1,0,396)" stroke-width=".75" stroke-linecap="butt" stroke-miterlimit="10" stroke-linejoin="miter" fill="none" stroke="#000000" d="M 376.841 44.3292 L 376.841 39.5796 "/>
<path transform="matrix(1,0,0,-1,0,396)" stroke-width=".75" stroke-linecap="butt" stroke-miterlimit="10" stroke-linejoin="miter" fill="none" stroke="#000000" d="M 395.898 44.3292 L 395.898 39.5796 "/>
<path transform="matrix(1,0,0,-1,0,396)" stroke-width=".75" stroke-linecap="butt" stroke-miterlimit="10" stroke-linejoin="miter" fill="none" stroke="#000000" d="M 414.954 44.3292 L 414.954 39.5796 "/>
<path transform="matrix(1,0,0,-1,0,396)" stroke-width=".75" stroke-linecap="butt" stroke-miterlimit="10" stroke-linejoin="miter" fill="none" stroke="#000000" d="M 434.01 49.0787 L 434.01 39.5796 "/>
<path transform="matrix(1,0,0,-1,0,396)" stroke-width=".75" stroke-linecap="butt" stroke-miterlimit="10" stroke-linejoin="miter" fill="none" stroke="#000000" d="M 453.067 44.3292 L 453.067 39.5796 "/>
<path transform="matrix(1,0,0,-1,0,396)" stroke-width=".75" stroke-linecap="butt" stroke-miterlimit="10" stroke-linejoin="miter" fill="none" stroke="#000000" d="M 472.123 44.3292 L 472.123 39.5796 "/>
<path transform="matrix(1,0,0,-1,0,396)" stroke-width=".75" stroke-linecap="butt" stroke-miterlimit="10" stroke-linejoin="miter" fill="none" stroke="#000000" d="M 491.18 44.3292 L 491.18 39.5796 "/>
<path transform="matrix(1,0,0,-1,0,396)" stroke-width=".75" stroke-linecap="butt" stroke-miterlimit="10" stroke-linejoin="miter" fill="none" stroke="#000000" d="M 510.236 49.0787 L 510.236 39.5796 "/>
<path transform="matrix(1,0,0,-1,0,396)" stroke-width=".75" stroke-linecap="butt" stroke-miterlimit="10" stroke-linejoin="miter" fill="none" stroke="#000000" d="M 129.107 49.0787 L 129.107 39.5796 "/>
<path transform="matrix(1,0,0,-1,0,396)" stroke-width=".75" stroke-linecap="butt" stroke-miterlimit="10" stroke-linejoin="miter" fill="none" stroke="#000000" d="M 110.051 44.3292 L 110.051 39.5796 "/>
<path transform="matrix(1,0,0,-1,0,396)" stroke-width=".75" stroke-linecap="butt" stroke-miterlimit="10" stroke-linejoin="miter" fill="none" stroke="#000000" d="M 90.9945 44.3292 L 90.9945 39.5796 "/>
<path transform="matrix(1,0,0,-1,0,396)" stroke-width=".75" stroke-linecap="butt" stroke-miterlimit="10" stroke-linejoin="miter" fill="none" stroke="#000000" d="M 71.9381 44.3292 L 71.9381 39.5796 "/>
<clipPath id="cp0">
<path transform="matrix(1,0,0,-1,0,396)" d="M 0 0 L 566.929 0 L 566.929 395.796 L 0 395.796 Z "/>
</clipPath>
<g clip-path="url(#cp0)">
<text xml:space="preserve" transform="matrix(1 0 -0 1 121.659 369.2351)" font-size="12.9769" font-family="Helvetica"><tspan y="0" x="0 7.215157">20</tspan></text>
</g>
<clipPath id="cp1">
<path transform="matrix(1,0,0,-1,0,396)" d="M 0 0 L 566.929 0 L 566.929 395.796 L 0 395.796 Z "/>
</clipPath>
<g clip-path="url(#cp1)">
<text xml:space="preserve" transform="matrix(1 0 -0 1 197.898 369.2351)" font-size="12.9769" font-family="Helvetica"><tspan y="0" x="0 7.215157">40</tspan></text>
</g>
<clipPath id="cp2">
<path transform="matrix(1,0,0,-1,0,396)" d="M 0 0 L 566.929 0 L 566.929 395.796 L 0 395.796 Z "/>
</clipPath>
<g clip-path="url(#cp2)">
<text xml:space="preserve" transform="matrix(1 0 -0 1 274.137 369.2351)" font-size="12.9769" font-family="Helvetica"><tspan y="0" x="0 7.215157">60</tspan></text>
</g>
<clipPath id="cp3">
<path transform="matrix(1,0,0,-1,0,396)" d="M 0 0 L 566.929 0 L 566.929 395.796 L 0 395.796 Z "/>
</clipPath>
<g clip-path="url(#cp3)">
<text xml:space="preserve" transform="matrix(1 0 -0 1 350.377 369.2351)" font-size="12.9769" font-family="Helvetica"><tspan y="0" x="0 7.215157">80</tspan></text>
</g>
<clipPath id="cp4">
<path transform="matrix(1,0,0,-1,0,396)" d="M 0 0 L 566.929 0 L 566.929 395.796 L 0 395.796 Z "/>
</clipPath>
<g clip-path="url(#cp4)">
<text xml:space="preserve" transform="matrix(1 0 -0 1 423.372 369.2351)" font-size="12.9769" font-family="Helvetica"><tspan y="0" x="0 7.215157 14.430314">100</tspan></text>
</g>
<clipPath id="cp5">
<path transform="matrix(1,0,0,-1,0,396)" d="M 0 0 L 566.929 0 L 566.929 395.796 L 0 395.796 Z "/>
</clipPath>
<g clip-path="url(#cp5)">
<text xml:space="preserve" transform="matrix(1 0 -0 1 499.611 369.2351)" font-size="12.9769" font-family="Helvetica"><tspan y="0" x="0 7.215157 14.430314">120</tspan></text>
</g>
<clipPath id="cp6">
<path transform="matrix(1,0,0,-1,0,396)" d="M 0 0 L 566.929 0 L 566.929 395.796 L 0 395.796 Z "/>
</clipPath>
<g clip-path="url(#cp6)">
<text xml:space="preserve" transform="matrix(1 0 -0 1 359.704 382.212)" font-size="12.9769" font-family="Helvetica"><tspan y="0" x="0 9.369323 16.58448 27.394238 34.609395 38.930704 46.14586 49.753438 56.968595 59.849466 63.457044 70.6722 74.99351 82.208667 89.42382 96.63898 100.24656 106.73501 113.950168 117.55775 121.16533 128.3805 132.7018 139.91696 143.52454">Numero di prede catturate</tspan></text>
</g>
<path transform="matrix(1,0,0,-1,0,396)" stroke-width=".75" stroke-linecap="butt" stroke-miterlimit="10" stroke-linejoin="miter" fill="none" stroke="#000000" d="M 56.6929 39.5796 L 56.6929 356.216 "/>
<path transform="matrix(1,0,0,-1,0,396)" stroke-width=".75" stroke-linecap="butt" stroke-miterlimit="10" stroke-linejoin="miter" fill="none" stroke="#000000" d="M 70.2992 39.5796 L 56.6929 39.5796 "/>
<path transform="matrix(1,0,0,-1,0,396)" stroke-width=".75" stroke-linecap="butt" stroke-miterlimit="10" stroke-linejoin="miter" fill="none" stroke="#000000" d="M 63.4961 47.1186 L 56.6929 47.1186 "/>
<path transform="matrix(1,0,0,-1,0,396)" stroke-width=".75" stroke-linecap="butt" stroke-miterlimit="10" stroke-linejoin="miter" fill="none" stroke="#000000" d="M 63.4961 54.6575 L 56.6929 54.6575 "/>
<path transform="matrix(1,0,0,-1,0,396)" stroke-width=".75" stroke-linecap="butt" stroke-miterlimit="10" stroke-linejoin="miter" fill="none" stroke="#000000" d="M 63.4961 62.1965 L 56.6929 62.1965 "/>
<path transform="matrix(1,0,0,-1,0,396)" stroke-width=".75" stroke-linecap="butt" stroke-miterlimit="10" stroke-linejoin="miter" fill="none" stroke="#000000" d="M 63.4961 69.7355 L 56.6929 69.7355 "/>
<path transform="matrix(1,0,0,-1,0,396)" stroke-width=".75" stroke-linecap="butt" stroke-miterlimit="10" stroke-linejoin="miter" fill="none" stroke="#000000" d="M 70.2992 77.2745 L 56.6929 77.2745 "/>
<path transform="matrix(1,0,0,-1,0,396)" stroke-width=".75" stroke-linecap="butt" stroke-miterlimit="10" stroke-linejoin="miter" fill="none" stroke="#000000" d="M 63.4961 84.8134 L 56.6929 84.8134 "/>
<path transform="matrix(1,0,0,-1,0,396)" stroke-width=".75" stroke-linecap="butt" stroke-miterlimit="10" stroke-linejoin="miter" fill="none" stroke="#000000" d="M 63.4961 92.3524 L 56.6929 92.3524 "/>
<path transform="matrix(1,0,0,-1,0,396)" stroke-width=".75" stroke-linecap="butt" stroke-miterlimit="10" stroke-linejoin="miter" fill="none" stroke="#000000" d="M 63.4961 99.8914 L 56.6929 99.8914 "/>
<path transform="matrix(1,0,0,-1,0,396)" stroke-width=".75" stroke-linecap="butt" stroke-miterlimit="10" stroke-linejoin="miter" fill="none" stroke="#000000" d="M 63.4961 107.43 L 56.6929 107.43 "/>
<path transform="matrix(1,0,0,-1,0,396)" stroke-width=".75" stroke-linecap="butt" stroke-miterlimit="10" stroke-linejoin="miter" fill="none" stroke="#000000" d="M 70.2992 114.969 L 56.6929 114.969 "/>
<path transform="matrix(1,0,0,-1,0,396)" stroke-width=".75" stroke-linecap="butt" stroke-miterlimit="10" stroke-linejoin="miter" fill="none" stroke="#000000" d="M 63.4961 122.508 L 56.6929 122.508 "/>
<path transform="matrix(1,0,0,-1,0,396)" stroke-width=".75" stroke-linecap="butt" stroke-miterlimit="10" stroke-linejoin="miter" fill="none" stroke="#000000" d="M 63.4961 130.047 L 56.6929 130.047 "/>
<path transform="matrix(1,0,0,-1,0,396)" stroke-width=".75" stroke-linecap="butt" stroke-miterlimit="10" stroke-linejoin="miter" fill="none" stroke="#000000" d="M 63.4961 137.586 L 56.6929 137.586 "/>
<path transform="matrix(1,0,0,-1,0,396)" stroke-width=".75" stroke-linecap="butt" stroke-miterlimit="10" stroke-linejoin="miter" fill="none" stroke="#000000" d="M 63.4961 145.125 L 56.6929 145.125 "/>
<path transform="matrix(1,0,0,-1,0,396)" stroke-width=".75" stroke-linecap="butt" stroke-miterlimit="10" stroke-linejoin="miter" fill="none" stroke="#000000" d="M 70.2992 152.664 L 56.6929 152.664 "/>
<path transform="matrix(1,0,0,-1,0,396)" stroke-width=".75" stroke-linecap="butt" stroke-miterlimit="10" stroke-linejoin="miter" fill="none" stroke="#000000" d="M 63.4961 160.203 L 56.6929 160.203 "/>
<path transform="matrix(1,0,0,-1,0,396)" stroke-width=".75" stroke-linecap="butt" stroke-miterlimit="10" stroke-linejoin="miter" fill="none" stroke="#000000" d="M 63.4961 167.742 L 56.6929 167.742 "/>
<path transform="matrix(1,0,0,-1,0,396)" stroke-width=".75" stroke-linecap="butt" stroke-miterlimit="10" stroke-linejoin="miter" fill="none" stroke="#000000" d="M 63.4961 175.281 L 56.6929 175.281 "/>
<path transform="matrix(1,0,0,-1,0,396)" stroke-width=".75" stroke-linecap="butt" stroke-miterlimit="10" stroke-linejoin="miter" fill="none" stroke="#000000" d="M 63.4961 182.82 L 56.6929 182.82 "/>
<path transform="matrix(1,0,0,-1,0,396)" stroke-width=".75" stroke-linecap="butt" stroke-miterlimit="10" stroke-linejoin="miter" fill="none" stroke="#000000" d="M 70.2992 190.359 L 56.6929 190.359 "/>
<path transform="matrix(1,0,0,-1,0,396)" stroke-width=".75" stroke-linecap="butt" stroke-miterlimit="10" stroke-linejoin="miter" fill="none" stroke="#000000" d="M 63.4961 197.898 L 56.6929 197.898 "/>
<path transform="matrix(1,0,0,-1,0,396)" stroke-width=".75" stroke-linecap="butt" stroke-miterlimit="10" stroke-linejoin="miter" fill="none" stroke="#000000" d="M 63.4961 205.437 L 56.6929 205.437 "/>
<path transform="matrix(1,0,0,-1,0,396)" stroke-width=".75" stroke-linecap="butt" stroke-miterlimit="10" stroke-linejoin="miter" fill="none" stroke="#000000" d="M 63.4961 212.976 L 56.6929 212.976 "/>
<path transform="matrix(1,0,0,-1,0,396)" stroke-width=".75" stroke-linecap="butt" stroke-miterlimit="10" stroke-linejoin="miter" fill="none" stroke="#000000" d="M 63.4961 220.515 L 56.6929 220.515 "/>
<path transform="matrix(1,0,0,-1,0,396)" stroke-width=".75" stroke-linecap="butt" stroke-miterlimit="10" stroke-linejoin="miter" fill="none" stroke="#000000" d="M 70.2992 228.054 L 56.6929 228.054 "/>
<path transform="matrix(1,0,0,-1,0,396)" stroke-width=".75" stroke-linecap="butt" stroke-miterlimit="10" stroke-linejoin="miter" fill="none" stroke="#000000" d="M 63.4961 235.593 L 56.6929 235.593 "/>
<path transform="matrix(1,0,0,-1,0,396)" stroke-width=".75" stroke-linecap="butt" stroke-miterlimit="10" stroke-linejoin="miter" fill="none" stroke="#000000" d="M 63.4961 243.132 L 56.6929 243.132 "/>
<path transform="matrix(1,0,0,-1,0,396)" stroke-width=".75" stroke-linecap="butt" stroke-miterlimit="10" stroke-linejoin="miter" fill="none" stroke="#000000" d="M 63.4961 250.671 L 56.6929 250.671 "/>
<path transform="matrix(1,0,0,-1,0,396)" stroke-width=".75" stroke-linecap="butt" stroke-miterlimit="10" stroke-linejoin="miter" fill="none" stroke="#000000" d="M 63.4961 258.21 L 56.6929 258.21 "/>
<path transform="matrix(1,0,0,-1,0,396)" stroke-width=".75" stroke-linecap="butt" stroke-miterlimit="10" stroke-linejoin="miter" fill="none" stroke="#000000" d="M 70.2992 265.749 L 56.6929 265.749 "/>
<path transform="matrix(1,0,0,-1,0,396)" stroke-width=".75" stroke-linecap="butt" stroke-miterlimit="10" stroke-linejoin="miter" fill="none" stroke="#000000" d="M 63.4961 273.288 L 56.6929 273.288 "/>
<path transform="matrix(1,0,0,-1,0,396)" stroke-width=".75" stroke-linecap="butt" stroke-miterlimit="10" stroke-linejoin="miter" fill="none" stroke="#000000" d="M 63.4961 280.827 L 56.6929 280.827 "/>
<path transform="matrix(1,0,0,-1,0,396)" stroke-width=".75" stroke-linecap="butt" stroke-miterlimit="10" stroke-linejoin="miter" fill="none" stroke="#000000" d="M 63.4961 288.366 L 56.6929 288.366 "/>
<path transform="matrix(1,0,0,-1,0,396)" stroke-width=".75" stroke-linecap="butt" stroke-miterlimit="10" stroke-linejoin="miter" fill="none" stroke="#000000" d="M 63.4961 295.905 L 56.6929 295.905 "/>
<path transform="matrix(1,0,0,-1,0,396)" stroke-width=".75" stroke-linecap="butt" stroke-miterlimit="10" stroke-linejoin="miter" fill="none" stroke="#000000" d="M 70.2992 303.444 L 56.6929 303.444 "/>
<path transform="matrix(1,0,0,-1,0,396)" stroke-width=".75" stroke-linecap="butt" stroke-miterlimit="10" stroke-linejoin="miter" fill="none" stroke="#000000" d="M 63.4961 310.983 L 56.6929 310.983 "/>
<path transform="matrix(1,0,0,-1,0,396)" stroke-width=".75" stroke-linecap="butt" stroke-miterlimit="10" stroke-linejoin="miter" fill="none" stroke="#000000" d="M 63.4961 318.522 L 56.6929 318.522 "/>
<path transform="matrix(1,0,0,-1,0,396)" stroke-width=".75" stroke-linecap="butt" stroke-miterlimit="10" stroke-linejoin="miter" fill="none" stroke="#000000" d="M 63.4961 326.061 L 56.6929 326.061 "/>
<path transform="matrix(1,0,0,-1,0,396)" stroke-width=".75" stroke-linecap="butt" stroke-miterlimit="10" stroke-linejoin="miter" fill="none" stroke="#000000" d="M 63.4961 333.599 L 56.6929 333.599 "/>
<path transform="matrix(1,0,0,-1,0,396)" stroke-width=".75" stroke-linecap="butt" stroke-miterlimit="10" stroke-linejoin="miter" fill="none" stroke="#000000" d="M 70.2992 341.138 L 56.6929 341.138 "/>
<path transform="matrix(1,0,0,-1,0,396)" stroke-width=".75" stroke-linecap="butt" stroke-miterlimit="10" stroke-linejoin="miter" fill="none" stroke="#000000" d="M 70.2992 341.138 L 56.6929 341.138 "/>
<path transform="matrix(1,0,0,-1,0,396)" stroke-width=".75" stroke-linecap="butt" stroke-miterlimit="10" stroke-linejoin="miter" fill="none" stroke="#000000" d="M 63.4961 348.677 L 56.6929 348.677 "/>
<path transform="matrix(1,0,0,-1,0,396)" stroke-width=".75" stroke-linecap="butt" stroke-miterlimit="10" stroke-linejoin="miter" fill="none" stroke="#000000" d="M 63.4961 356.216 L 56.6929 356.216 "/>
<clipPath id="cp7">
<path transform="matrix(1,0,0,-1,0,396)" d="M 0 0 L 566.929 0 L 566.929 395.796 L 0 395.796 Z "/>
</clipPath>
<g clip-path="url(#cp7)">
<text xml:space="preserve" transform="matrix(1 0 -0 1 46.6358 361.1245)" font-size="12.9769" font-family="Helvetica"><tspan y="0" x="0">0</tspan></text>
</g>
<clipPath id="cp8">
<path transform="matrix(1,0,0,-1,0,396)" d="M 0 0 L 566.929 0 L 566.929 395.796 L 0 395.796 Z "/>
</clipPath>
<g clip-path="url(#cp8)">
<text xml:space="preserve" transform="matrix(1 0 -0 1 35.6865 323.4104)" font-size="12.9769" font-family="Helvetica"><tspan y="0" x="0 7.215157 10.822736">0.5</tspan></text>
</g>
<clipPath id="cp9">
<path transform="matrix(1,0,0,-1,0,396)" d="M 0 0 L 566.929 0 L 566.929 395.796 L 0 395.796 Z "/>
</clipPath>
<g clip-path="url(#cp9)">
<text xml:space="preserve" transform="matrix(1 0 -0 1 48.6634 285.69599)" font-size="12.9769" font-family="Helvetica"><tspan y="0" x="0">1</tspan></text>
</g>
<clipPath id="cp10">
<path transform="matrix(1,0,0,-1,0,396)" d="M 0 0 L 566.929 0 L 566.929 395.796 L 0 395.796 Z "/>
</clipPath>
<g clip-path="url(#cp10)">
<text xml:space="preserve" transform="matrix(1 0 -0 1 35.6865 247.982)" font-size="12.9769" font-family="Helvetica"><tspan y="0" x="0 7.215157 10.822736">1.5</tspan></text>
</g>
<clipPath id="cp11">
<path transform="matrix(1,0,0,-1,0,396)" d="M 0 0 L 566.929 0 L 566.929 395.796 L 0 395.796 Z "/>
</clipPath>
<g clip-path="url(#cp11)">
<text xml:space="preserve" transform="matrix(1 0 -0 1 46.6358 210.268)" font-size="12.9769" font-family="Helvetica"><tspan y="0" x="0">2</tspan></text>
</g>
<clipPath id="cp12">
<path transform="matrix(1,0,0,-1,0,396)" d="M 0 0 L 566.929 0 L 566.929 395.796 L 0 395.796 Z "/>
</clipPath>
<g clip-path="url(#cp12)">
<text xml:space="preserve" transform="matrix(1 0 -0 1 35.6865 172.554)" font-size="12.9769" font-family="Helvetica"><tspan y="0" x="0 7.215157 10.822736">2.5</tspan></text>
</g>
<clipPath id="cp13">
<path transform="matrix(1,0,0,-1,0,396)" d="M 0 0 L 566.929 0 L 566.929 395.796 L 0 395.796 Z "/>
</clipPath>
<g clip-path="url(#cp13)">
<text xml:space="preserve" transform="matrix(1 0 -0 1 46.6358 134.84)" font-size="12.9769" font-family="Helvetica"><tspan y="0" x="0">3</tspan></text>
</g>
<clipPath id="cp14">
<path transform="matrix(1,0,0,-1,0,396)" d="M 0 0 L 566.929 0 L 566.929 395.796 L 0 395.796 Z "/>
</clipPath>
<g clip-path="url(#cp14)">
<text xml:space="preserve" transform="matrix(1 0 -0 1 35.6865 97.125)" font-size="12.9769" font-family="Helvetica"><tspan y="0" x="0 7.215157 10.822736">3.5</tspan></text>
</g>
<clipPath id="cp15">
<path transform="matrix(1,0,0,-1,0,396)" d="M 0 0 L 566.929 0 L 566.929 395.796 L 0 395.796 Z "/>
</clipPath>
<g clip-path="url(#cp15)">
<text xml:space="preserve" transform="matrix(1 0 -0 1 46.6358 59.41101)" font-size="12.9769" font-family="Helvetica"><tspan y="0" x="0">4</tspan></text>
</g>
<clipPath id="cp16">
<path transform="matrix(1,0,0,-1,0,396)" d="M 0 0 L 566.929 0 L 566.929 395.796 L 0 395.796 Z "/>
</clipPath>
<g clip-path="url(#cp16)">
<text xml:space="preserve" transform="matrix(0 -1 1 0 23.5207 106.453)" font-size="12.9769" font-family="Helvetica"><tspan y="0" x="0 10.096029 16.58448 23.07293 30.288086 34.609395 38.930704 46.14586 53.361017 59.849466">Occorrenze</tspan></text>
</g>
<clipPath id="cp17">
<path transform="matrix(1,0,0,-1,0,396)" d="M 0 0 L 566.929 0 L 566.929 395.796 L 0 395.796 Z "/>
</clipPath>
<g clip-path="url(#cp17)">
<text xml:space="preserve" transform="matrix(1 0 -0 1 222.23 19.264008)" font-size="17.4377" font-family="Helvetica"><tspan y="0" x="0 11.630947 17.437703 27.133065 36.828428 46.52379 51.371469 63.961488 73.656848 78.504528 83.3522 93.04756 98.85432 108.54968 113.39736">Prede Catturate</tspan></text>
</g>
<path transform="matrix(1,0,0,-1,0,396)" d="M 442.205 306.742 L 555.591 306.742 L 555.591 370.0694 L 442.205 370.0694 Z " fill="#ffffff" fill-rule="evenodd"/>
<path transform="matrix(1,0,0,-1,0,396)" stroke-width=".4" stroke-linecap="butt" stroke-miterlimit="10" stroke-linejoin="miter" fill="none" stroke="#ffffff" d="M 442.205 306.742 L 555.591 306.742 L 555.591 370.0694 L 442.205 370.0694 Z "/>
<path transform="matrix(1,0,0,-1,0,396)" stroke-width=".75" stroke-linecap="butt" stroke-miterlimit="10" stroke-linejoin="miter" fill="none" stroke="#000000" d="M 442.205 306.742 L 555.591 306.742 "/>
<path transform="matrix(1,0,0,-1,0,396)" stroke-width=".75" stroke-linecap="butt" stroke-miterlimit="10" stroke-linejoin="miter" fill="none" stroke="#000000" d="M 555.591 306.742 L 555.591 370.069 "/>
<path transform="matrix(1,0,0,-1,0,396)" stroke-width=".75" stroke-linecap="butt" stroke-miterlimit="10" stroke-linejoin="miter" fill="none" stroke="#000000" d="M 555.591 370.069 L 442.205 370.069 "/>
<path transform="matrix(1,0,0,-1,0,396)" stroke-width=".75" stroke-linecap="butt" stroke-miterlimit="10" stroke-linejoin="miter" fill="none" stroke="#000000" d="M 442.205 370.069 L 442.205 306.742 "/>
<clipPath id="cp18">
<path transform="matrix(1,0,0,-1,0,396)" d="M 0 0 L 566.929 0 L 566.929 395.796 L 0 395.796 Z "/>
</clipPath>
<g clip-path="url(#cp18)">
<text xml:space="preserve" transform="matrix(1 0 -0 1 484.201 38.729005)" font-size="13.788" font-family="Helvetica"><tspan y="0" x="0 7.6661288 10.727065 17.621066 21.45413">histo</tspan></text>
</g>
<path transform="matrix(1,0,0,-1,0,396)" stroke-width=".75" stroke-linecap="butt" stroke-miterlimit="10" stroke-linejoin="miter" fill="none" stroke="#000000" d="M 442.205 354.237 L 555.591 354.237 "/>
<clipPath id="cp19">
<path transform="matrix(1,0,0,-1,0,396)" d="M 0 0 L 566.929 0 L 566.929 395.796 L 0 395.796 Z "/>
</clipPath>
<g clip-path="url(#cp19)">
<text xml:space="preserve" transform="matrix(1 0 -0 1 447.704 54.545015)" font-size="12.9769" font-family="Helvetica"><tspan y="0" x="0 8.655593 15.87075 19.478329 23.799637 26.68051 33.895669 40.384119">Entries </tspan></text>
</g>
<clipPath id="cp20">
<path transform="matrix(1,0,0,-1,0,396)" d="M 0 0 L 566.929 0 L 566.929 395.796 L 0 395.796 Z "/>
</clipPath>
<g clip-path="url(#cp20)">
<text xml:space="preserve" transform="matrix(1 0 -0 1 532.459 54.545015)" font-size="12.9769" font-family="Helvetica"><tspan y="0" x="0 3.6075786 10.822736"> 50</tspan></text>
</g>
<clipPath id="cp21">
<path transform="matrix(1,0,0,-1,0,396)" d="M 0 0 L 566.929 0 L 566.929 395.796 L 0 395.796 Z "/>
</clipPath>
<g clip-path="url(#cp21)">
<text xml:space="preserve" transform="matrix(1 0 -0 1 447.704 70.359989)" font-size="12.9769" font-family="Helvetica"><tspan y="0" x="0 10.809758 18.024916 25.240073 32.45523 36.06281">Mean  </tspan></text>
</g>
<clipPath id="cp22">
<path transform="matrix(1,0,0,-1,0,396)" d="M 0 0 L 566.929 0 L 566.929 395.796 L 0 395.796 Z "/>
</clipPath>
<g clip-path="url(#cp22)">
<text xml:space="preserve" transform="matrix(1 0 -0 1 510.561 70.359989)" font-size="12.9769" font-family="Helvetica"><tspan y="0" x="0 3.6075786 7.215157 14.430314 21.645472 25.25305 32.46821">  93.06</tspan></text>
</g>
<clipPath id="cp23">
<path transform="matrix(1,0,0,-1,0,396)" d="M 0 0 L 566.929 0 L 566.929 395.796 L 0 395.796 Z "/>
</clipPath>
<g clip-path="url(#cp23)">
<text xml:space="preserve" transform="matrix(1 0 -0 1 447.704 86.175998)" font-size="12.9769" font-family="Helvetica"><tspan y="0" x="0 8.655593 12.263171 19.478329 23.085907 32.45523 39.670389 46.158838 49.766416 53.373994">Std Dev   </tspan></text>
</g>
<clipPath id="cp24">
<path transform="matrix(1,0,0,-1,0,396)" d="M 0 0 L 566.929 0 L 566.929 395.796 L 0 395.796 Z "/>
</clipPath>
<g clip-path="url(#cp24)">
<text xml:space="preserve" transform="matrix(1 0 -0 1 510.561 86.175998)" font-size="12.9769" font-family="Helvetica"><tspan y="0" x="0 3.6075786 7.215157 14.430314 18.037894 25.25305 32.46821">  9.116</tspan></text>
</g>
<clipPath id="cp25">
<path transform="matrix(1,0,0,-1,0,396)" d="M 0 0 L 566.929 0 L 566.929 395.796 L 0 395.796 Z "/>
</clipPath>
<g clip-path="url(#cp25)">
<text xml:space="preserve" transform="matrix(1 0 -0 1 222.23 19.264008)" font-size="17.4377" font-family="Helvetica"><tspan y="0" x="0 11.630947 17.437703 27.133065 36.828428 46.52379 51.371469 63.961488 73.656848 78.504528 83.3522 93.04756 98.85432 108.54968 113.39736">Prede Catturate</tspan></text>
</g>
</g>
</svg>
