<?xml version="1.0" encoding="UTF-8" standalone="no"?>
<!DOCTYPE svg PUBLIC "-//W3C//DTD SVG 1.1//EN" "http://www.w3.org/Graphics/SVG/1.1/DTD/svg11.dtd">
<svg xmlns="http://www.w3.org/2000/svg" xmlns:xlink="http://www.w3.org/1999/xlink" version="1.1" width="567pt" height="396pt" viewBox="0 0 567 396">
<g enable-background="new">
<path transform="matrix(1,0,0,-1,0,396)" d="M 0 0 L 566.929 0 L 566.929 395.796 L 0 395.796 Z " fill="#ffffff" fill-rule="evenodd"/>
<path transform="matrix(1,0,0,-1,0,396)" stroke-width=".4" stroke-linecap="butt" stroke-miterlimit="10" stroke-linejoin="miter" fill="none" stroke="#ffffff" d="M 0 0 L 566.929 0 L 566.929 395.796 L 0 395.796 Z "/>
<path transform="matrix(1,0,0,-1,0,396)" d="M 56.6929 39.5796 L 510.2359 39.5796 L 510.2359 356.21659 L 56.6929 356.21659 Z " fill="#ffffff" fill-rule="evenodd"/>
<path transform="matrix(1,0,0,-1,0,396)" stroke-width=".4" stroke-linecap="butt" stroke-miterlimit="10" stroke-linejoin="miter" fill="none" stroke="#ffffff" d="M 56.6929 39.5796 L 510.2359 39.5796 L 510.2359 356.21659 L 56.6929 356.21659 Z "/>
<path transform="matrix(1,0,0,-1,0,396)" stroke-width=".75" stroke-linecap="butt" stroke-miterlimit="10" stroke-linejoin="miter" fill="none" stroke="#000000" d="M 56.6929 39.5796 L 510.2359 39.5796 L 510.2359 356.21659 L 56.6929 356.21659 Z "/>
<path transform="matrix(1,0,0,-1,0,396)" stroke-width=".75" stroke-linecap="butt" stroke-miterlimit="10" stroke-linejoin="miter" fill="none" stroke="#000000" d="M 56.6929 39.5796 L 510.236 39.5796 "/>
<path transform="matrix(1,0,0,-1,0,396)" stroke-width=".75" stroke-linecap="butt" stroke-dasharray="1,2" stroke-miterlimit="10" stroke-linejoin="miter" fill="none" stroke="#000000" d="M 129.107 356.216 L 129.107 39.5796 "/>
<path transform="matrix(1,0,0,-1,0,396)" stroke-width=".75" stroke-linecap="butt" stroke-dasharray="1,2" stroke-miterlimit="10" stroke-linejoin="miter" fill="none" stroke="#000000" d="M 205.333 356.216 L 205.333 39.5796 "/>
<path transform="matrix(1,0,0,-1,0,396)" stroke-width=".75" stroke-linecap="butt" stroke-dasharray="1,2" stroke-miterlimit="10" stroke-linejoin="miter" fill="none" stroke="#000000" d="M 281.559 356.216 L 281.559 39.5796 "/>
<path transform="matrix(1,0,0,-1,0,396)" stroke-width=".75" stroke-linecap="butt" stroke-dasharray="1,2" stroke-miterlimit="10" stroke-linejoin="miter" fill="none" stroke="#000000" d="M 357.785 356.216 L 357.785 39.5796 "/>
<path transform="matrix(1,0,0,-1,0,396)" stroke-width=".75" stroke-linecap="butt" stroke-dasharray="1,2" stroke-miterlimit="10" stroke-linejoin="miter" fill="none" stroke="#000000" d="M 434.01 356.216 L 434.01 39.5796 "/>
<path transform="matrix(1,0,0,-1,0,396)" stroke-width=".75" stroke-linecap="butt" stroke-dasharray="1,2" stroke-miterlimit="10" stroke-linejoin="miter" fill="none" stroke="#000000" d="M 510.236 356.216 L 510.236 39.5796 "/>
<path transform="matrix(1,0,0,-1,0,396)" stroke-width=".75" stroke-linecap="butt" stroke-dasharray="1,2" stroke-miterlimit="10" stroke-linejoin="miter" fill="none" stroke="#000000" d="M 129.107 356.216 L 129.107 39.5796 "/>
<path transform="matrix(1,0,0,-1,0,396)" stroke-width=".75" stroke-linecap="butt" stroke-miterlimit="10" stroke-linejoin="miter" fill="none" stroke="#000000" d="M 56.6929 39.5796 L 56.6929 356.216 "/>
<path transform="matrix(1,0,0,-1,0,396)" stroke-width=".75" stroke-linecap="butt" stroke-dasharray="1,2" stroke-miterlimit="10" stroke-linejoin="miter" fill="none" stroke="#000000" d="M 510.236 39.5796 L 56.6929 39.5796 "/>
<path transform="matrix(1,0,0,-1,0,396)" stroke-width=".75" stroke-linecap="butt" stroke-dasharray="1,2" stroke-miterlimit="10" stroke-linejoin="miter" fill="none" stroke="#000000" d="M 510.236 82.6594 L 56.6929 82.6594 "/>
<path transform="matrix(1,0,0,-1,0,396)" stroke-width=".75" stroke-linecap="butt" stroke-dasharray="1,2" stroke-miterlimit="10" stroke-linejoin="miter" fill="none" stroke="#000000" d="M 510.236 125.739 L 56.6929 125.739 "/>
<path transform="matrix(1,0,0,-1,0,396)" stroke-width=".75" stroke-linecap="butt" stroke-dasharray="1,2" stroke-miterlimit="10" stroke-linejoin="miter" fill="none" stroke="#000000" d="M 510.236 168.819 L 56.6929 168.819 "/>
<path transform="matrix(1,0,0,-1,0,396)" stroke-width=".75" stroke-linecap="butt" stroke-dasharray="1,2" stroke-miterlimit="10" stroke-linejoin="miter" fill="none" stroke="#000000" d="M 510.236 211.899 L 56.6929 211.899 "/>
<path transform="matrix(1,0,0,-1,0,396)" stroke-width=".75" stroke-linecap="butt" stroke-dasharray="1,2" stroke-miterlimit="10" stroke-linejoin="miter" fill="none" stroke="#000000" d="M 510.236 254.979 L 56.6929 254.979 "/>
<path transform="matrix(1,0,0,-1,0,396)" stroke-width=".75" stroke-linecap="butt" stroke-dasharray="1,2" stroke-miterlimit="10" stroke-linejoin="miter" fill="none" stroke="#000000" d="M 510.236 298.059 L 56.6929 298.059 "/>
<path transform="matrix(1,0,0,-1,0,396)" stroke-width=".75" stroke-linecap="butt" stroke-dasharray="1,2" stroke-miterlimit="10" stroke-linejoin="miter" fill="none" stroke="#000000" d="M 510.236 341.138 L 56.6929 341.138 "/>
<path transform="matrix(1,0,0,-1,0,396)" stroke-width=".75" stroke-linecap="butt" stroke-dasharray="1,2" stroke-miterlimit="10" stroke-linejoin="miter" fill="none" stroke="#000000" d="M 510.236 341.138 L 56.6929 341.138 "/>
<path transform="matrix(1,0,0,-1,0,396)" d="M 56.6929 39.5796 L 56.6929 39.5796 L 60.4724 39.5796 L 64.252 39.5796 L 68.0315 39.5796 L 71.811 39.5796 L 75.5906 39.5796 L 79.3701 39.5796 L 83.1496 39.5796 L 86.9291 39.5796 L 90.7087 39.5796 L 94.4882 39.5796 L 98.2677 39.5796 L 102.047 39.5796 L 105.827 39.5796 L 109.606 39.5796 L 113.386 39.5796 L 117.165 39.5796 L 120.945 39.5796 L 124.724 39.5796 L 128.504 39.5796 L 132.283 39.5796 L 136.063 39.5796 L 139.843 39.5796 L 143.622 39.5796 L 147.402 39.5796 L 151.181 39.5796 L 154.961 39.5796 L 158.74 39.5796 L 162.52 39.5796 L 166.299 39.5796 L 170.079 39.5796 L 173.858 39.5796 L 177.638 39.5796 L 181.417 39.5796 L 185.197 39.5796 L 188.976 39.5796 L 192.756 39.5796 L 196.535 39.5796 L 200.315 39.5796 L 204.094 39.5796 L 207.874 39.5796 L 211.654 39.5796 L 215.433 39.5796 L 219.213 39.5796 L 222.992 39.5796 L 226.772 39.5796 L 230.551 39.5796 L 234.331 39.5796 L 238.11 39.5796 L 241.89 39.5796 L 245.669 39.5796 L 249.449 39.5796 L 253.228 39.5796 L 257.008 39.5796 L 260.787 39.5796 L 264.567 39.5796 L 268.346 39.5796 L 272.126 39.5796 L 275.906 39.5796 L 279.685 39.5796 L 283.465 39.5796 L 287.244 39.5796 L 291.024 39.5796 L 294.803 39.5796 L 298.583 39.5796 L 302.362 39.5796 L 306.142 39.5796 L 309.921 39.5796 L 313.701 39.5796 L 317.48 39.5796 L 321.26 39.5796 L 325.039 39.5796 L 328.819 39.5796 L 332.598 39.5796 L 336.378 39.5796 L 340.157 39.5796 L 343.937 39.5796 L 347.717 39.5796 L 351.496 39.5796 L 355.276 39.5796 L 359.055 39.5796 L 362.835 39.5796 L 366.614 39.5796 L 366.614 82.6594 L 370.394 82.6594 L 370.394 125.739 L 374.173 125.739 L 374.173 39.5796 L 377.953 39.5796 L 381.732 39.5796 L 385.512 39.5796 L 385.512 82.6594 L 389.291 82.6594 L 389.291 39.5796 L 393.071 39.5796 L 396.85 39.5796 L 396.85 168.819 L 400.63 168.819 L 400.63 211.899 L 404.409 211.899 L 404.409 82.6594 L 408.189 82.6594 L 411.969 82.6594 L 415.748 82.6594 L 415.748 211.899 L 419.528 211.899 L 419.528 125.739 L 423.307 125.739 L 423.307 341.138 L 427.087 341.138 L 427.087 125.739 L 430.866 125.739 L 434.646 125.739 L 438.425 125.739 L 438.425 254.979 L 442.205 254.979 L 442.205 168.819 L 445.984 168.819 L 445.984 125.739 L 449.764 125.739 L 449.764 82.6594 L 453.543 82.6594 L 453.543 168.819 L 457.323 168.819 L 461.102 168.819 L 461.102 39.5796 L 464.882 39.5796 L 468.661 39.5796 L 472.441 39.5796 L 476.22 39.5796 L 480 39.5796 L 483.78 39.5796 L 487.559 39.5796 L 491.339 39.5796 L 495.118 39.5796 L 498.898 39.5796 L 502.677 39.5796 L 506.457 39.5796 L 510.236 39.5796 " fill="#0066cc" fill-rule="evenodd"/>
<path transform="matrix(1,0,0,-1,0,396)" stroke-width=".75" stroke-linecap="butt" stroke-miterlimit="10" stroke-linejoin="miter" fill="none" stroke="#000099" d="M 56.6929 39.5796 L 60.4724 39.5796 L 64.252 39.5796 L 68.0315 39.5796 L 71.811 39.5796 L 75.5906 39.5796 L 79.3701 39.5796 L 83.1496 39.5796 L 86.9291 39.5796 L 90.7087 39.5796 L 94.4882 39.5796 L 98.2677 39.5796 L 102.047 39.5796 L 105.827 39.5796 L 109.606 39.5796 L 113.386 39.5796 L 117.165 39.5796 L 120.945 39.5796 L 124.724 39.5796 L 128.504 39.5796 L 132.283 39.5796 L 136.063 39.5796 L 139.843 39.5796 L 143.622 39.5796 L 147.402 39.5796 L 151.181 39.5796 L 154.961 39.5796 L 158.74 39.5796 L 162.52 39.5796 L 166.299 39.5796 L 170.079 39.5796 L 173.858 39.5796 L 177.638 39.5796 L 181.417 39.5796 L 185.197 39.5796 L 188.976 39.5796 L 192.756 39.5796 L 196.535 39.5796 L 200.315 39.5796 L 204.094 39.5796 L 207.874 39.5796 L 211.654 39.5796 L 215.433 39.5796 L 219.213 39.5796 L 222.992 39.5796 L 226.772 39.5796 L 230.551 39.5796 L 234.331 39.5796 L 238.11 39.5796 L 241.89 39.5796 L 245.669 39.5796 L 249.449 39.5796 L 253.228 39.5796 L 257.008 39.5796 L 260.787 39.5796 L 264.567 39.5796 L 268.346 39.5796 L 272.126 39.5796 L 275.906 39.5796 L 279.685 39.5796 L 283.465 39.5796 L 287.244 39.5796 L 291.024 39.5796 L 294.803 39.5796 L 298.583 39.5796 L 302.362 39.5796 L 306.142 39.5796 L 309.921 39.5796 L 313.701 39.5796 L 317.48 39.5796 L 321.26 39.5796 L 325.039 39.5796 L 328.819 39.5796 L 332.598 39.5796 L 336.378 39.5796 L 340.157 39.5796 L 343.937 39.5796 L 347.717 39.5796 L 351.496 39.5796 L 355.276 39.5796 L 359.055 39.5796 L 362.835 39.5796 L 366.614 39.5796 L 366.614 82.6594 L 370.394 82.6594 L 370.394 125.739 L 374.173 125.739 L 374.173 39.5796 L 377.953 39.5796 L 381.732 39.5796 L 385.512 39.5796 L 385.512 82.6594 L 389.291 82.6594 L 389.291 39.5796 L 393.071 39.5796 L 396.85 39.5796 L 396.85 168.819 L 400.63 168.819 L 400.63 211.899 L 404.409 211.899 L 404.409 82.6594 L 408.189 82.6594 L 411.969 82.6594 L 415.748 82.6594 L 415.748 211.899 L 419.528 211.899 L 419.528 125.739 L 423.307 125.739 L 423.307 341.138 L 427.087 341.138 L 427.087 125.739 L 430.866 125.739 L 434.646 125.739 L 438.425 125.739 L 438.425 254.979 L 442.205 254.979 L 442.205 168.819 L 445.984 168.819 L 445.984 125.739 L 449.764 125.739 L 449.764 82.6594 L 453.543 82.6594 L 453.543 168.819 L 457.323 168.819 L 461.102 168.819 L 461.102 39.5796 L 464.882 39.5796 L 468.661 39.5796 L 472.441 39.5796 L 476.22 39.5796 L 480 39.5796 L 483.78 39.5796 L 487.559 39.5796 L 491.339 39.5796 L 495.118 39.5796 L 498.898 39.5796 L 502.677 39.5796 L 506.457 39.5796 L 510.236 39.5796 "/>
<path transform="matrix(1,0,0,-1,0,396)" stroke-width=".75" stroke-linecap="butt" stroke-miterlimit="10" stroke-linejoin="miter" fill="none" stroke="#000000" d="M 56.6929 39.5796 L 510.236 39.5796 "/>
<path transform="matrix(1,0,0,-1,0,396)" stroke-width=".75" stroke-linecap="butt" stroke-miterlimit="10" stroke-linejoin="miter" fill="none" stroke="#000000" d="M 129.107 49.0787 L 129.107 39.5796 "/>
<path transform="matrix(1,0,0,-1,0,396)" stroke-width=".75" stroke-linecap="butt" stroke-miterlimit="10" stroke-linejoin="miter" fill="none" stroke="#000000" d="M 148.164 44.3292 L 148.164 39.5796 "/>
<path transform="matrix(1,0,0,-1,0,396)" stroke-width=".75" stroke-linecap="butt" stroke-miterlimit="10" stroke-linejoin="miter" fill="none" stroke="#000000" d="M 167.22 44.3292 L 167.22 39.5796 "/>
<path transform="matrix(1,0,0,-1,0,396)" stroke-width=".75" stroke-linecap="butt" stroke-miterlimit="10" stroke-linejoin="miter" fill="none" stroke="#000000" d="M 186.277 44.3292 L 186.277 39.5796 "/>
<path transform="matrix(1,0,0,-1,0,396)" stroke-width=".75" stroke-linecap="butt" stroke-miterlimit="10" stroke-linejoin="miter" fill="none" stroke="#000000" d="M 205.333 49.0787 L 205.333 39.5796 "/>
<path transform="matrix(1,0,0,-1,0,396)" stroke-width=".75" stroke-linecap="butt" stroke-miterlimit="10" stroke-linejoin="miter" fill="none" stroke="#000000" d="M 224.39 44.3292 L 224.39 39.5796 "/>
<path transform="matrix(1,0,0,-1,0,396)" stroke-width=".75" stroke-linecap="butt" stroke-miterlimit="10" stroke-linejoin="miter" fill="none" stroke="#000000" d="M 243.446 44.3292 L 243.446 39.5796 "/>
<path transform="matrix(1,0,0,-1,0,396)" stroke-width=".75" stroke-linecap="butt" stroke-miterlimit="10" stroke-linejoin="miter" fill="none" stroke="#000000" d="M 262.502 44.3292 L 262.502 39.5796 "/>
<path transform="matrix(1,0,0,-1,0,396)" stroke-width=".75" stroke-linecap="butt" stroke-miterlimit="10" stroke-linejoin="miter" fill="none" stroke="#000000" d="M 281.559 49.0787 L 281.559 39.5796 "/>
<path transform="matrix(1,0,0,-1,0,396)" stroke-width=".75" stroke-linecap="butt" stroke-miterlimit="10" stroke-linejoin="miter" fill="none" stroke="#000000" d="M 300.615 44.3292 L 300.615 39.5796 "/>
<path transform="matrix(1,0,0,-1,0,396)" stroke-width=".75" stroke-linecap="butt" stroke-miterlimit="10" stroke-linejoin="miter" fill="none" stroke="#000000" d="M 319.672 44.3292 L 319.672 39.5796 "/>
<path transform="matrix(1,0,0,-1,0,396)" stroke-width=".75" stroke-linecap="butt" stroke-miterlimit="10" stroke-linejoin="miter" fill="none" stroke="#000000" d="M 338.728 44.3292 L 338.728 39.5796 "/>
<path transform="matrix(1,0,0,-1,0,396)" stroke-width=".75" stroke-linecap="butt" stroke-miterlimit="10" stroke-linejoin="miter" fill="none" stroke="#000000" d="M 357.785 49.0787 L 357.785 39.5796 "/>
<path transform="matrix(1,0,0,-1,0,396)" stroke-width=".75" stroke-linecap="butt" stroke-miterlimit="10" stroke-linejoin="miter" fill="none" stroke="#000000" d="M 376.841 44.3292 L 376.841 39.5796 "/>
<path transform="matrix(1,0,0,-1,0,396)" stroke-width=".75" stroke-linecap="butt" stroke-miterlimit="10" stroke-linejoin="miter" fill="none" stroke="#000000" d="M 395.898 44.3292 L 395.898 39.5796 "/>
<path transform="matrix(1,0,0,-1,0,396)" stroke-width=".75" stroke-linecap="butt" stroke-miterlimit="10" stroke-linejoin="miter" fill="none" stroke="#000000" d="M 414.954 44.3292 L 414.954 39.5796 "/>
<path transform="matrix(1,0,0,-1,0,396)" stroke-width=".75" stroke-linecap="butt" stroke-miterlimit="10" stroke-linejoin="miter" fill="none" stroke="#000000" d="M 434.01 49.0787 L 434.01 39.5796 "/>
<path transform="matrix(1,0,0,-1,0,396)" stroke-width=".75" stroke-linecap="butt" stroke-miterlimit="10" stroke-linejoin="miter" fill="none" stroke="#000000" d="M 453.067 44.3292 L 453.067 39.5796 "/>
<path transform="matrix(1,0,0,-1,0,396)" stroke-width=".75" stroke-linecap="butt" stroke-miterlimit="10" stroke-linejoin="miter" fill="none" stroke="#000000" d="M 472.123 44.3292 L 472.123 39.5796 "/>
<path transform="matrix(1,0,0,-1,0,396)" stroke-width=".75" stroke-linecap="butt" stroke-miterlimit="10" stroke-linejoin="miter" fill="none" stroke="#000000" d="M 491.18 44.3292 L 491.18 39.5796 "/>
<path transform="matrix(1,0,0,-1,0,396)" stroke-width=".75" stroke-linecap="butt" stroke-miterlimit="10" stroke-linejoin="miter" fill="none" stroke="#000000" d="M 510.236 49.0787 L 510.236 39.5796 "/>
<path transform="matrix(1,0,0,-1,0,396)" stroke-width=".75" stroke-linecap="butt" stroke-miterlimit="10" stroke-linejoin="miter" fill="none" stroke="#000000" d="M 129.107 49.0787 L 129.107 39.5796 "/>
<path transform="matrix(1,0,0,-1,0,396)" stroke-width=".75" stroke-linecap="butt" stroke-miterlimit="10" stroke-linejoin="miter" fill="none" stroke="#000000" d="M 110.051 44.3292 L 110.051 39.5796 "/>
<path transform="matrix(1,0,0,-1,0,396)" stroke-width=".75" stroke-linecap="butt" stroke-miterlimit="10" stroke-linejoin="miter" fill="none" stroke="#000000" d="M 90.9945 44.3292 L 90.9945 39.5796 "/>
<path transform="matrix(1,0,0,-1,0,396)" stroke-width=".75" stroke-linecap="butt" stroke-miterlimit="10" stroke-linejoin="miter" fill="none" stroke="#000000" d="M 71.9381 44.3292 L 71.9381 39.5796 "/>
<clipPath id="cp0">
<path transform="matrix(1,0,0,-1,0,396)" d="M 0 0 L 566.929 0 L 566.929 395.796 L 0 395.796 Z "/>
</clipPath>
<g clip-path="url(#cp0)">
<text xml:space="preserve" transform="matrix(1 0 -0 1 121.659 369.2351)" font-size="12.9769" font-family="Helvetica"><tspan y="0" x="0 7.215157">20</tspan></text>
</g>
<clipPath id="cp1">
<path transform="matrix(1,0,0,-1,0,396)" d="M 0 0 L 566.929 0 L 566.929 395.796 L 0 395.796 Z "/>
</clipPath>
<g clip-path="url(#cp1)">
<text xml:space="preserve" transform="matrix(1 0 -0 1 197.898 369.2351)" font-size="12.9769" font-family="Helvetica"><tspan y="0" x="0 7.215157">40</tspan></text>
</g>
<clipPath id="cp2">
<path transform="matrix(1,0,0,-1,0,396)" d="M 0 0 L 566.929 0 L 566.929 395.796 L 0 395.796 Z "/>
</clipPath>
<g clip-path="url(#cp2)">
<text xml:space="preserve" transform="matrix(1 0 -0 1 274.137 369.2351)" font-size="12.9769" font-family="Helvetica"><tspan y="0" x="0 7.215157">60</tspan></text>
</g>
<clipPath id="cp3">
<path transform="matrix(1,0,0,-1,0,396)" d="M 0 0 L 566.929 0 L 566.929 395.796 L 0 395.796 Z "/>
</clipPath>
<g clip-path="url(#cp3)">
<text xml:space="preserve" transform="matrix(1 0 -0 1 350.377 369.2351)" font-size="12.9769" font-family="Helvetica"><tspan y="0" x="0 7.215157">80</tspan></text>
</g>
<clipPath id="cp4">
<path transform="matrix(1,0,0,-1,0,396)" d="M 0 0 L 566.929 0 L 566.929 395.796 L 0 395.796 Z "/>
</clipPath>
<g clip-path="url(#cp4)">
<text xml:space="preserve" transform="matrix(1 0 -0 1 423.372 369.2351)" font-size="12.9769" font-family="Helvetica"><tspan y="0" x="0 7.215157 14.430314">100</tspan></text>
</g>
<clipPath id="cp5">
<path transform="matrix(1,0,0,-1,0,396)" d="M 0 0 L 566.929 0 L 566.929 395.796 L 0 395.796 Z "/>
</clipPath>
<g clip-path="url(#cp5)">
<text xml:space="preserve" transform="matrix(1 0 -0 1 499.611 369.2351)" font-size="12.9769" font-family="Helvetica"><tspan y="0" x="0 7.215157 14.430314">120</tspan></text>
</g>
<clipPath id="cp6">
<path transform="matrix(1,0,0,-1,0,396)" d="M 0 0 L 566.929 0 L 566.929 395.796 L 0 395.796 Z "/>
</clipPath>
<g clip-path="url(#cp6)">
<text xml:space="preserve" transform="matrix(1 0 -0 1 359.704 382.212)" font-size="12.9769" font-family="Helvetica"><tspan y="0" x="0 9.369323 16.58448 27.394238 34.609395 38.930704 46.14586 49.753438 56.968595 59.849466 63.457044 70.6722 74.99351 82.208667 89.42382 96.63898 100.24656 106.73501 113.950168 117.55775 121.16533 128.3805 132.7018 139.91696 143.52454">Numero di prede catturate</tspan></text>
</g>
<path transform="matrix(1,0,0,-1,0,396)" stroke-width=".75" stroke-linecap="butt" stroke-miterlimit="10" stroke-linejoin="miter" fill="none" stroke="#000000" d="M 56.6929 39.5796 L 56.6929 356.216 "/>
<path transform="matrix(1,0,0,-1,0,396)" stroke-width=".75" stroke-linecap="butt" stroke-miterlimit="10" stroke-linejoin="miter" fill="none" stroke="#000000" d="M 70.2992 39.5796 L 56.6929 39.5796 "/>
<path transform="matrix(1,0,0,-1,0,396)" stroke-width=".75" stroke-linecap="butt" stroke-miterlimit="10" stroke-linejoin="miter" fill="none" stroke="#000000" d="M 63.4961 48.1956 L 56.6929 48.1956 "/>
<path transform="matrix(1,0,0,-1,0,396)" stroke-width=".75" stroke-linecap="butt" stroke-miterlimit="10" stroke-linejoin="miter" fill="none" stroke="#000000" d="M 63.4961 56.8115 L 56.6929 56.8115 "/>
<path transform="matrix(1,0,0,-1,0,396)" stroke-width=".75" stroke-linecap="butt" stroke-miterlimit="10" stroke-linejoin="miter" fill="none" stroke="#000000" d="M 63.4961 65.4275 L 56.6929 65.4275 "/>
<path transform="matrix(1,0,0,-1,0,396)" stroke-width=".75" stroke-linecap="butt" stroke-miterlimit="10" stroke-linejoin="miter" fill="none" stroke="#000000" d="M 63.4961 74.0435 L 56.6929 74.0435 "/>
<path transform="matrix(1,0,0,-1,0,396)" stroke-width=".75" stroke-linecap="butt" stroke-miterlimit="10" stroke-linejoin="miter" fill="none" stroke="#000000" d="M 70.2992 82.6594 L 56.6929 82.6594 "/>
<path transform="matrix(1,0,0,-1,0,396)" stroke-width=".75" stroke-linecap="butt" stroke-miterlimit="10" stroke-linejoin="miter" fill="none" stroke="#000000" d="M 63.4961 91.2754 L 56.6929 91.2754 "/>
<path transform="matrix(1,0,0,-1,0,396)" stroke-width=".75" stroke-linecap="butt" stroke-miterlimit="10" stroke-linejoin="miter" fill="none" stroke="#000000" d="M 63.4961 99.8914 L 56.6929 99.8914 "/>
<path transform="matrix(1,0,0,-1,0,396)" stroke-width=".75" stroke-linecap="butt" stroke-miterlimit="10" stroke-linejoin="miter" fill="none" stroke="#000000" d="M 63.4961 108.507 L 56.6929 108.507 "/>
<path transform="matrix(1,0,0,-1,0,396)" stroke-width=".75" stroke-linecap="butt" stroke-miterlimit="10" stroke-linejoin="miter" fill="none" stroke="#000000" d="M 63.4961 117.123 L 56.6929 117.123 "/>
<path transform="matrix(1,0,0,-1,0,396)" stroke-width=".75" stroke-linecap="butt" stroke-miterlimit="10" stroke-linejoin="miter" fill="none" stroke="#000000" d="M 70.2992 125.739 L 56.6929 125.739 "/>
<path transform="matrix(1,0,0,-1,0,396)" stroke-width=".75" stroke-linecap="butt" stroke-miterlimit="10" stroke-linejoin="miter" fill="none" stroke="#000000" d="M 63.4961 134.355 L 56.6929 134.355 "/>
<path transform="matrix(1,0,0,-1,0,396)" stroke-width=".75" stroke-linecap="butt" stroke-miterlimit="10" stroke-linejoin="miter" fill="none" stroke="#000000" d="M 63.4961 142.971 L 56.6929 142.971 "/>
<path transform="matrix(1,0,0,-1,0,396)" stroke-width=".75" stroke-linecap="butt" stroke-miterlimit="10" stroke-linejoin="miter" fill="none" stroke="#000000" d="M 63.4961 151.587 L 56.6929 151.587 "/>
<path transform="matrix(1,0,0,-1,0,396)" stroke-width=".75" stroke-linecap="butt" stroke-miterlimit="10" stroke-linejoin="miter" fill="none" stroke="#000000" d="M 63.4961 160.203 L 56.6929 160.203 "/>
<path transform="matrix(1,0,0,-1,0,396)" stroke-width=".75" stroke-linecap="butt" stroke-miterlimit="10" stroke-linejoin="miter" fill="none" stroke="#000000" d="M 70.2992 168.819 L 56.6929 168.819 "/>
<path transform="matrix(1,0,0,-1,0,396)" stroke-width=".75" stroke-linecap="butt" stroke-miterlimit="10" stroke-linejoin="miter" fill="none" stroke="#000000" d="M 63.4961 177.435 L 56.6929 177.435 "/>
<path transform="matrix(1,0,0,-1,0,396)" stroke-width=".75" stroke-linecap="butt" stroke-miterlimit="10" stroke-linejoin="miter" fill="none" stroke="#000000" d="M 63.4961 186.051 L 56.6929 186.051 "/>
<path transform="matrix(1,0,0,-1,0,396)" stroke-width=".75" stroke-linecap="butt" stroke-miterlimit="10" stroke-linejoin="miter" fill="none" stroke="#000000" d="M 63.4961 194.667 L 56.6929 194.667 "/>
<path transform="matrix(1,0,0,-1,0,396)" stroke-width=".75" stroke-linecap="butt" stroke-miterlimit="10" stroke-linejoin="miter" fill="none" stroke="#000000" d="M 63.4961 203.283 L 56.6929 203.283 "/>
<path transform="matrix(1,0,0,-1,0,396)" stroke-width=".75" stroke-linecap="butt" stroke-miterlimit="10" stroke-linejoin="miter" fill="none" stroke="#000000" d="M 70.2992 211.899 L 56.6929 211.899 "/>
<path transform="matrix(1,0,0,-1,0,396)" stroke-width=".75" stroke-linecap="butt" stroke-miterlimit="10" stroke-linejoin="miter" fill="none" stroke="#000000" d="M 63.4961 220.515 L 56.6929 220.515 "/>
<path transform="matrix(1,0,0,-1,0,396)" stroke-width=".75" stroke-linecap="butt" stroke-miterlimit="10" stroke-linejoin="miter" fill="none" stroke="#000000" d="M 63.4961 229.131 L 56.6929 229.131 "/>
<path transform="matrix(1,0,0,-1,0,396)" stroke-width=".75" stroke-linecap="butt" stroke-miterlimit="10" stroke-linejoin="miter" fill="none" stroke="#000000" d="M 63.4961 237.747 L 56.6929 237.747 "/>
<path transform="matrix(1,0,0,-1,0,396)" stroke-width=".75" stroke-linecap="butt" stroke-miterlimit="10" stroke-linejoin="miter" fill="none" stroke="#000000" d="M 63.4961 246.363 L 56.6929 246.363 "/>
<path transform="matrix(1,0,0,-1,0,396)" stroke-width=".75" stroke-linecap="butt" stroke-miterlimit="10" stroke-linejoin="miter" fill="none" stroke="#000000" d="M 70.2992 254.979 L 56.6929 254.979 "/>
<path transform="matrix(1,0,0,-1,0,396)" stroke-width=".75" stroke-linecap="butt" stroke-miterlimit="10" stroke-linejoin="miter" fill="none" stroke="#000000" d="M 63.4961 263.595 L 56.6929 263.595 "/>
<path transform="matrix(1,0,0,-1,0,396)" stroke-width=".75" stroke-linecap="butt" stroke-miterlimit="10" stroke-linejoin="miter" fill="none" stroke="#000000" d="M 63.4961 272.211 L 56.6929 272.211 "/>
<path transform="matrix(1,0,0,-1,0,396)" stroke-width=".75" stroke-linecap="butt" stroke-miterlimit="10" stroke-linejoin="miter" fill="none" stroke="#000000" d="M 63.4961 280.827 L 56.6929 280.827 "/>
<path transform="matrix(1,0,0,-1,0,396)" stroke-width=".75" stroke-linecap="butt" stroke-miterlimit="10" stroke-linejoin="miter" fill="none" stroke="#000000" d="M 63.4961 289.443 L 56.6929 289.443 "/>
<path transform="matrix(1,0,0,-1,0,396)" stroke-width=".75" stroke-linecap="butt" stroke-miterlimit="10" stroke-linejoin="miter" fill="none" stroke="#000000" d="M 70.2992 298.059 L 56.6929 298.059 "/>
<path transform="matrix(1,0,0,-1,0,396)" stroke-width=".75" stroke-linecap="butt" stroke-miterlimit="10" stroke-linejoin="miter" fill="none" stroke="#000000" d="M 63.4961 306.675 L 56.6929 306.675 "/>
<path transform="matrix(1,0,0,-1,0,396)" stroke-width=".75" stroke-linecap="butt" stroke-miterlimit="10" stroke-linejoin="miter" fill="none" stroke="#000000" d="M 63.4961 315.291 L 56.6929 315.291 "/>
<path transform="matrix(1,0,0,-1,0,396)" stroke-width=".75" stroke-linecap="butt" stroke-miterlimit="10" stroke-linejoin="miter" fill="none" stroke="#000000" d="M 63.4961 323.907 L 56.6929 323.907 "/>
<path transform="matrix(1,0,0,-1,0,396)" stroke-width=".75" stroke-linecap="butt" stroke-miterlimit="10" stroke-linejoin="miter" fill="none" stroke="#000000" d="M 63.4961 332.522 L 56.6929 332.522 "/>
<path transform="matrix(1,0,0,-1,0,396)" stroke-width=".75" stroke-linecap="butt" stroke-miterlimit="10" stroke-linejoin="miter" fill="none" stroke="#000000" d="M 70.2992 341.138 L 56.6929 341.138 "/>
<path transform="matrix(1,0,0,-1,0,396)" stroke-width=".75" stroke-linecap="butt" stroke-miterlimit="10" stroke-linejoin="miter" fill="none" stroke="#000000" d="M 70.2992 341.138 L 56.6929 341.138 "/>
<path transform="matrix(1,0,0,-1,0,396)" stroke-width=".75" stroke-linecap="butt" stroke-miterlimit="10" stroke-linejoin="miter" fill="none" stroke="#000000" d="M 63.4961 349.754 L 56.6929 349.754 "/>
<clipPath id="cp7">
<path transform="matrix(1,0,0,-1,0,396)" d="M 0 0 L 566.929 0 L 566.929 395.796 L 0 395.796 Z "/>
</clipPath>
<g clip-path="url(#cp7)">
<text xml:space="preserve" transform="matrix(1 0 -0 1 46.6358 361.1245)" font-size="12.9769" font-family="Helvetica"><tspan y="0" x="0">0</tspan></text>
</g>
<clipPath id="cp8">
<path transform="matrix(1,0,0,-1,0,396)" d="M 0 0 L 566.929 0 L 566.929 395.796 L 0 395.796 Z "/>
</clipPath>
<g clip-path="url(#cp8)">
<text xml:space="preserve" transform="matrix(1 0 -0 1 48.6634 318.1385)" font-size="12.9769" font-family="Helvetica"><tspan y="0" x="0">1</tspan></text>
</g>
<clipPath id="cp9">
<path transform="matrix(1,0,0,-1,0,396)" d="M 0 0 L 566.929 0 L 566.929 395.796 L 0 395.796 Z "/>
</clipPath>
<g clip-path="url(#cp9)">
<text xml:space="preserve" transform="matrix(1 0 -0 1 46.6358 274.747)" font-size="12.9769" font-family="Helvetica"><tspan y="0" x="0">2</tspan></text>
</g>
<clipPath id="cp10">
<path transform="matrix(1,0,0,-1,0,396)" d="M 0 0 L 566.929 0 L 566.929 395.796 L 0 395.796 Z "/>
</clipPath>
<g clip-path="url(#cp10)">
<text xml:space="preserve" transform="matrix(1 0 -0 1 46.6358 231.761)" font-size="12.9769" font-family="Helvetica"><tspan y="0" x="0">3</tspan></text>
</g>
<clipPath id="cp11">
<path transform="matrix(1,0,0,-1,0,396)" d="M 0 0 L 566.929 0 L 566.929 395.796 L 0 395.796 Z "/>
</clipPath>
<g clip-path="url(#cp11)">
<text xml:space="preserve" transform="matrix(1 0 -0 1 46.6358 188.775)" font-size="12.9769" font-family="Helvetica"><tspan y="0" x="0">4</tspan></text>
</g>
<clipPath id="cp12">
<path transform="matrix(1,0,0,-1,0,396)" d="M 0 0 L 566.929 0 L 566.929 395.796 L 0 395.796 Z "/>
</clipPath>
<g clip-path="url(#cp12)">
<text xml:space="preserve" transform="matrix(1 0 -0 1 46.6358 145.789)" font-size="12.9769" font-family="Helvetica"><tspan y="0" x="0">5</tspan></text>
</g>
<clipPath id="cp13">
<path transform="matrix(1,0,0,-1,0,396)" d="M 0 0 L 566.929 0 L 566.929 395.796 L 0 395.796 Z "/>
</clipPath>
<g clip-path="url(#cp13)">
<text xml:space="preserve" transform="matrix(1 0 -0 1 46.6358 102.80301)" font-size="12.9769" font-family="Helvetica"><tspan y="0" x="0">6</tspan></text>
</g>
<clipPath id="cp14">
<path transform="matrix(1,0,0,-1,0,396)" d="M 0 0 L 566.929 0 L 566.929 395.796 L 0 395.796 Z "/>
</clipPath>
<g clip-path="url(#cp14)">
<text xml:space="preserve" transform="matrix(1 0 -0 1 46.6358 59.41101)" font-size="12.9769" font-family="Helvetica"><tspan y="0" x="0">7</tspan></text>
</g>
<clipPath id="cp15">
<path transform="matrix(1,0,0,-1,0,396)" d="M 0 0 L 566.929 0 L 566.929 395.796 L 0 395.796 Z "/>
</clipPath>
<g clip-path="url(#cp15)">
<text xml:space="preserve" transform="matrix(0 -1 1 0 34.4699 106.453)" font-size="12.9769" font-family="Helvetica"><tspan y="0" x="0 10.096029 16.58448 23.07293 30.288086 34.609395 38.930704 46.14586 53.361017 59.849466">Occorrenze</tspan></text>
</g>
<clipPath id="cp16">
<path transform="matrix(1,0,0,-1,0,396)" d="M 0 0 L 566.929 0 L 566.929 395.796 L 0 395.796 Z "/>
</clipPath>
<g clip-path="url(#cp16)">
<text xml:space="preserve" transform="matrix(1 0 -0 1 222.23 19.264008)" font-size="17.4377" font-family="Helvetica"><tspan y="0" x="0 11.630947 17.437703 27.133065 36.828428 46.52379 51.371469 63.961488 73.656848 78.504528 83.3522 93.04756 98.85432 108.54968 113.39736">Prede Catturate</tspan></text>
</g>
<path transform="matrix(1,0,0,-1,0,396)" d="M 442.205 306.742 L 555.591 306.742 L 555.591 370.0694 L 442.205 370.0694 Z " fill="#ffffff" fill-rule="evenodd"/>
<path transform="matrix(1,0,0,-1,0,396)" stroke-width=".4" stroke-linecap="butt" stroke-miterlimit="10" stroke-linejoin="miter" fill="none" stroke="#ffffff" d="M 442.205 306.742 L 555.591 306.742 L 555.591 370.0694 L 442.205 370.0694 Z "/>
<path transform="matrix(1,0,0,-1,0,396)" stroke-width=".75" stroke-linecap="butt" stroke-miterlimit="10" stroke-linejoin="miter" fill="none" stroke="#000000" d="M 442.205 306.742 L 555.591 306.742 "/>
<path transform="matrix(1,0,0,-1,0,396)" stroke-width=".75" stroke-linecap="butt" stroke-miterlimit="10" stroke-linejoin="miter" fill="none" stroke="#000000" d="M 555.591 306.742 L 555.591 370.069 "/>
<path transform="matrix(1,0,0,-1,0,396)" stroke-width=".75" stroke-linecap="butt" stroke-miterlimit="10" stroke-linejoin="miter" fill="none" stroke="#000000" d="M 555.591 370.069 L 442.205 370.069 "/>
<path transform="matrix(1,0,0,-1,0,396)" stroke-width=".75" stroke-linecap="butt" stroke-miterlimit="10" stroke-linejoin="miter" fill="none" stroke="#000000" d="M 442.205 370.069 L 442.205 306.742 "/>
<clipPath id="cp17">
<path transform="matrix(1,0,0,-1,0,396)" d="M 0 0 L 566.929 0 L 566.929 395.796 L 0 395.796 Z "/>
</clipPath>
<g clip-path="url(#cp17)">
<text xml:space="preserve" transform="matrix(1 0 -0 1 484.201 38.729005)" font-size="13.788" font-family="Helvetica"><tspan y="0" x="0 7.6661288 10.727065 17.621066 21.45413">histo</tspan></text>
</g>
<path transform="matrix(1,0,0,-1,0,396)" stroke-width=".75" stroke-linecap="butt" stroke-miterlimit="10" stroke-linejoin="miter" fill="none" stroke="#000000" d="M 442.205 354.237 L 555.591 354.237 "/>
<clipPath id="cp18">
<path transform="matrix(1,0,0,-1,0,396)" d="M 0 0 L 566.929 0 L 566.929 395.796 L 0 395.796 Z "/>
</clipPath>
<g clip-path="url(#cp18)">
<text xml:space="preserve" transform="matrix(1 0 -0 1 447.704 54.545015)" font-size="12.9769" font-family="Helvetica"><tspan y="0" x="0 8.655593 15.87075 19.478329 23.799637 26.68051 33.895669 40.384119">Entries </tspan></text>
</g>
<clipPath id="cp19">
<path transform="matrix(1,0,0,-1,0,396)" d="M 0 0 L 566.929 0 L 566.929 395.796 L 0 395.796 Z "/>
</clipPath>
<g clip-path="url(#cp19)">
<text xml:space="preserve" transform="matrix(1 0 -0 1 532.459 54.545015)" font-size="12.9769" font-family="Helvetica"><tspan y="0" x="0 3.6075786 10.822736"> 50</tspan></text>
</g>
<clipPath id="cp20">
<path transform="matrix(1,0,0,-1,0,396)" d="M 0 0 L 566.929 0 L 566.929 395.796 L 0 395.796 Z "/>
</clipPath>
<g clip-path="url(#cp20)">
<text xml:space="preserve" transform="matrix(1 0 -0 1 447.704 70.359989)" font-size="12.9769" font-family="Helvetica"><tspan y="0" x="0 10.809758 18.024916 25.240073 32.45523 36.06281">Mean  </tspan></text>
</g>
<clipPath id="cp21">
<path transform="matrix(1,0,0,-1,0,396)" d="M 0 0 L 566.929 0 L 566.929 395.796 L 0 395.796 Z "/>
</clipPath>
<g clip-path="url(#cp21)">
<text xml:space="preserve" transform="matrix(1 0 -0 1 510.561 70.359989)" font-size="12.9769" font-family="Helvetica"><tspan y="0" x="0 3.6075786 7.215157 14.430314 21.645472 25.25305 32.46821">  97.94</tspan></text>
</g>
<clipPath id="cp22">
<path transform="matrix(1,0,0,-1,0,396)" d="M 0 0 L 566.929 0 L 566.929 395.796 L 0 395.796 Z "/>
</clipPath>
<g clip-path="url(#cp22)">
<text xml:space="preserve" transform="matrix(1 0 -0 1 447.704 86.175998)" font-size="12.9769" font-family="Helvetica"><tspan y="0" x="0 8.655593 12.263171 19.478329 23.085907 32.45523 39.670389 46.158838 49.766416 53.373994">Std Dev   </tspan></text>
</g>
<clipPath id="cp23">
<path transform="matrix(1,0,0,-1,0,396)" d="M 0 0 L 566.929 0 L 566.929 395.796 L 0 395.796 Z "/>
</clipPath>
<g clip-path="url(#cp23)">
<text xml:space="preserve" transform="matrix(1 0 -0 1 510.561 86.175998)" font-size="12.9769" font-family="Helvetica"><tspan y="0" x="0 3.6075786 7.215157 14.430314 18.037894 25.25305 32.46821">  6.025</tspan></text>
</g>
<clipPath id="cp24">
<path transform="matrix(1,0,0,-1,0,396)" d="M 0 0 L 566.929 0 L 566.929 395.796 L 0 395.796 Z "/>
</clipPath>
<g clip-path="url(#cp24)">
<text xml:space="preserve" transform="matrix(1 0 -0 1 222.23 19.264008)" font-size="17.4377" font-family="Helvetica"><tspan y="0" x="0 11.630947 17.437703 27.133065 36.828428 46.52379 51.371469 63.961488 73.656848 78.504528 83.3522 93.04756 98.85432 108.54968 113.39736">Prede Catturate</tspan></text>
</g>
</g>
</svg>
